<?xml version="1.0" encoding="UTF-8"?>
<svg xmlns="http://www.w3.org/2000/svg" width="2000" height="1400" viewBox="0 0 2000 1400">
<style>
    .title { font-family: sans-serif; font-size: 16px; font-weight: bold; }
    .subtitle { font-family: sans-serif; font-size: 11px; fill: #666; }
    .anchor-label { font-family: sans-serif; font-size: 9px; fill: #333; }
    .match-label { font-family: sans-serif; font-size: 7px; fill: #666; }
    .axis-label { font-family: sans-serif; font-size: 10px; fill: #999; }
    .legend { font-family: sans-serif; font-size: 9px; }
</style>
<defs>
    <filter id="shadow" x="-20%" y="-20%" width="140%" height="140%">
        <feDropShadow dx="1" dy="1" stdDeviation="1" flood-opacity="0.3"/>
    </filter>
</defs>
<rect width="100%" height="100%" fill="#fafafa"/>

<!-- Title -->
<text x="1000.0" y="25" text-anchor="middle" class="title">DNA Match Ancestor Map</text>
<text x="1000.0" y="42" text-anchor="middle" class="subtitle">X: Ancestor branch (paternal ← → maternal) | Y: Affinity to known relatives</text>

<!-- Axis labels -->
<text x="50" y="700.0" class="axis-label">← Paternal</text>
<text x="1920" y="700.0" class="axis-label">Maternal →</text>
<text x="1000.0" y="70" text-anchor="middle" class="axis-label">Close relatives (high cM)</text>
<text x="1000.0" y="1380" text-anchor="middle" class="axis-label">Distant / unknown branch</text>

<!-- Center line -->
<line x1="1000.0" y1="80" x2="1000.0" y2="1350" stroke="#e5e7eb" stroke-width="1" stroke-dasharray="4"/>

<!-- Branch zones -->
<rect x="100" y="80" width="850.0" height="1270" fill="#fef2f2" opacity="0.3"/>
<rect x="1050.0" y="80" width="850.0" height="1270" fill="#eff6ff" opacity="0.3"/>
<text x="200" y="100" class="axis-label" fill="#991b1b">HLW Line (ahn 18)</text>
<text x="1750" y="100" class="axis-label" fill="#1e40af">Tart Line (ahn 31)</text>

<!-- DNA match connections -->
<line x1="1004.5" y1="135.4" x2="501.7" y2="343.4" stroke="#dc2626" stroke-width="1.5" opacity="0.60"/>
<line x1="1004.5" y1="135.4" x2="991.7" y2="412.4" stroke="#dc2626" stroke-width="1.5" opacity="0.60"/>
<line x1="1004.5" y1="135.4" x2="212.1" y2="619.1" stroke="#ea580c" stroke-width="1.0" opacity="0.50"/>
<line x1="1004.5" y1="135.4" x2="192.4" y2="785.4" stroke="#94a3b8" stroke-width="0.7" opacity="0.40"/>
<line x1="1004.5" y1="135.4" x2="1813.6" y2="796.8" stroke="#dc2626" stroke-width="1.5" opacity="0.60"/>
<line x1="1004.5" y1="135.4" x2="1792.0" y2="775.6" stroke="#94a3b8" stroke-width="0.7" opacity="0.40"/>
<line x1="501.7" y1="343.4" x2="991.7" y2="412.4" stroke="#dc2626" stroke-width="1.5" opacity="0.60"/>
<line x1="467.8" y1="590.2" x2="501.7" y2="343.4" stroke="#dc2626" stroke-width="1.5" opacity="0.60"/>
<line x1="467.8" y1="590.2" x2="1004.5" y2="135.4" stroke="#ea580c" stroke-width="1.0" opacity="0.50"/>
<line x1="1021.9" y1="583.6" x2="1004.5" y2="135.4" stroke="#ea580c" stroke-width="1.0" opacity="0.50"/>
<line x1="220.7" y1="606.2" x2="1004.5" y2="135.4" stroke="#dc2626" stroke-width="1.5" opacity="0.60"/>
<line x1="220.7" y1="606.2" x2="501.7" y2="343.4" stroke="#94a3b8" stroke-width="0.7" opacity="0.40"/>
<line x1="220.7" y1="606.2" x2="991.7" y2="412.4" stroke="#dc2626" stroke-width="1.5" opacity="0.60"/>
<line x1="220.7" y1="606.2" x2="212.1" y2="619.1" stroke="#dc2626" stroke-width="1.5" opacity="0.60"/>
<line x1="220.7" y1="606.2" x2="238.6" y2="744.9" stroke="#dc2626" stroke-width="1.5" opacity="0.60"/>
<line x1="220.7" y1="606.2" x2="192.4" y2="785.4" stroke="#dc2626" stroke-width="1.5" opacity="0.60"/>
<line x1="212.1" y1="619.1" x2="501.7" y2="343.4" stroke="#94a3b8" stroke-width="0.7" opacity="0.40"/>
<line x1="212.1" y1="619.1" x2="991.7" y2="412.4" stroke="#94a3b8" stroke-width="0.7" opacity="0.40"/>
<line x1="1006.7" y1="624.6" x2="1004.5" y2="135.4" stroke="#94a3b8" stroke-width="0.7" opacity="0.40"/>
<line x1="1829.2" y1="625.7" x2="1004.5" y2="135.4" stroke="#ea580c" stroke-width="1.0" opacity="0.50"/>
<line x1="1829.2" y1="625.7" x2="1792.0" y2="775.6" stroke="#94a3b8" stroke-width="0.7" opacity="0.40"/>
<line x1="989.2" y1="673.4" x2="1004.5" y2="135.4" stroke="#dc2626" stroke-width="1.5" opacity="0.60"/>
<line x1="483.1" y1="712.9" x2="1004.5" y2="135.4" stroke="#ea580c" stroke-width="1.0" opacity="0.50"/>
<line x1="483.1" y1="712.9" x2="501.7" y2="343.4" stroke="#94a3b8" stroke-width="0.7" opacity="0.40"/>
<line x1="1016.3" y1="710.5" x2="1004.5" y2="135.4" stroke="#94a3b8" stroke-width="0.7" opacity="0.40"/>
<line x1="975.7" y1="732.5" x2="1004.5" y2="135.4" stroke="#ea580c" stroke-width="1.0" opacity="0.50"/>
<line x1="235.8" y1="733.4" x2="1004.5" y2="135.4" stroke="#94a3b8" stroke-width="0.7" opacity="0.40"/>
<line x1="235.8" y1="733.4" x2="991.7" y2="412.4" stroke="#ea580c" stroke-width="1.0" opacity="0.50"/>
<line x1="235.8" y1="733.4" x2="238.6" y2="744.9" stroke="#94a3b8" stroke-width="0.7" opacity="0.40"/>
<line x1="235.8" y1="733.4" x2="192.4" y2="785.4" stroke="#94a3b8" stroke-width="0.7" opacity="0.40"/>
<line x1="987.5" y1="738.1" x2="1004.5" y2="135.4" stroke="#94a3b8" stroke-width="0.7" opacity="0.40"/>
<line x1="214.1" y1="761.1" x2="1004.5" y2="135.4" stroke="#94a3b8" stroke-width="0.7" opacity="0.40"/>
<line x1="214.1" y1="761.1" x2="212.1" y2="619.1" stroke="#94a3b8" stroke-width="0.7" opacity="0.40"/>
<line x1="214.1" y1="761.1" x2="238.6" y2="744.9" stroke="#94a3b8" stroke-width="0.7" opacity="0.40"/>
<line x1="1805.2" y1="756.7" x2="1792.0" y2="775.6" stroke="#ea580c" stroke-width="1.0" opacity="0.50"/>
<line x1="236.6" y1="766.7" x2="1004.5" y2="135.4" stroke="#94a3b8" stroke-width="0.7" opacity="0.40"/>
<line x1="238.6" y1="744.9" x2="212.1" y2="619.1" stroke="#94a3b8" stroke-width="0.7" opacity="0.40"/>
<line x1="238.6" y1="744.9" x2="192.4" y2="785.4" stroke="#dc2626" stroke-width="1.5" opacity="0.60"/>
<line x1="493.8" y1="749.0" x2="501.7" y2="343.4" stroke="#dc2626" stroke-width="1.5" opacity="0.60"/>
<line x1="1016.3" y1="766.1" x2="1004.5" y2="135.4" stroke="#94a3b8" stroke-width="0.7" opacity="0.40"/>
<line x1="1016.3" y1="766.1" x2="991.7" y2="412.4" stroke="#94a3b8" stroke-width="0.7" opacity="0.40"/>
<line x1="1008.5" y1="750.7" x2="1004.5" y2="135.4" stroke="#94a3b8" stroke-width="0.7" opacity="0.40"/>
<line x1="196.8" y1="769.1" x2="238.6" y2="744.9" stroke="#94a3b8" stroke-width="0.7" opacity="0.40"/>
<line x1="192.4" y1="785.4" x2="991.7" y2="412.4" stroke="#dc2626" stroke-width="1.5" opacity="0.60"/>
<line x1="1014.1" y1="751.6" x2="1004.5" y2="135.4" stroke="#94a3b8" stroke-width="0.7" opacity="0.40"/>
<line x1="989.7" y1="771.3" x2="1004.5" y2="135.4" stroke="#ea580c" stroke-width="1.0" opacity="0.50"/>
<line x1="226.9" y1="767.0" x2="238.6" y2="744.9" stroke="#94a3b8" stroke-width="0.7" opacity="0.40"/>
<line x1="982.4" y1="789.8" x2="1004.5" y2="135.4" stroke="#94a3b8" stroke-width="0.7" opacity="0.40"/>
<line x1="981.2" y1="790.5" x2="1004.5" y2="135.4" stroke="#94a3b8" stroke-width="0.7" opacity="0.40"/>
<line x1="982.5" y1="798.8" x2="1004.5" y2="135.4" stroke="#94a3b8" stroke-width="0.7" opacity="0.40"/>
<line x1="982.5" y1="798.8" x2="991.7" y2="412.4" stroke="#94a3b8" stroke-width="0.7" opacity="0.40"/>
<line x1="1019.7" y1="802.5" x2="1004.5" y2="135.4" stroke="#94a3b8" stroke-width="0.7" opacity="0.40"/>
<line x1="1006.2" y1="807.6" x2="1004.5" y2="135.4" stroke="#94a3b8" stroke-width="0.7" opacity="0.40"/>
<line x1="1792.1" y1="789.9" x2="1004.5" y2="135.4" stroke="#94a3b8" stroke-width="0.7" opacity="0.40"/>
<line x1="1792.1" y1="789.9" x2="1813.6" y2="796.8" stroke="#94a3b8" stroke-width="0.7" opacity="0.40"/>
<line x1="1011.8" y1="779.0" x2="1004.5" y2="135.4" stroke="#94a3b8" stroke-width="0.7" opacity="0.40"/>
<line x1="975.6" y1="782.1" x2="1004.5" y2="135.4" stroke="#94a3b8" stroke-width="0.7" opacity="0.40"/>
<line x1="993.9" y1="798.7" x2="1004.5" y2="135.4" stroke="#94a3b8" stroke-width="0.7" opacity="0.40"/>
<line x1="989.4" y1="820.5" x2="1004.5" y2="135.4" stroke="#94a3b8" stroke-width="0.7" opacity="0.40"/>
<line x1="997.2" y1="820.1" x2="1004.5" y2="135.4" stroke="#94a3b8" stroke-width="0.7" opacity="0.40"/>
<line x1="979.7" y1="825.6" x2="1004.5" y2="135.4" stroke="#94a3b8" stroke-width="0.7" opacity="0.40"/>
<line x1="479.7" y1="811.7" x2="501.7" y2="343.4" stroke="#94a3b8" stroke-width="0.7" opacity="0.40"/>
<line x1="477.9" y1="811.6" x2="501.7" y2="343.4" stroke="#94a3b8" stroke-width="0.7" opacity="0.40"/>
<line x1="468.5" y1="825.6" x2="501.7" y2="343.4" stroke="#94a3b8" stroke-width="0.7" opacity="0.40"/>
<line x1="991.5" y1="819.0" x2="1004.5" y2="135.4" stroke="#94a3b8" stroke-width="0.7" opacity="0.40"/>
<line x1="1011.5" y1="792.2" x2="1004.5" y2="135.4" stroke="#94a3b8" stroke-width="0.7" opacity="0.40"/>
<line x1="993.6" y1="809.3" x2="1004.5" y2="135.4" stroke="#94a3b8" stroke-width="0.7" opacity="0.40"/>
<line x1="469.2" y1="802.5" x2="501.7" y2="343.4" stroke="#94a3b8" stroke-width="0.7" opacity="0.40"/>
<line x1="460.9" y1="818.1" x2="501.7" y2="343.4" stroke="#94a3b8" stroke-width="0.7" opacity="0.40"/>
<line x1="1014.7" y1="802.2" x2="1004.5" y2="135.4" stroke="#94a3b8" stroke-width="0.7" opacity="0.40"/>
<line x1="216.5" y1="807.9" x2="238.6" y2="744.9" stroke="#94a3b8" stroke-width="0.7" opacity="0.40"/>
<line x1="230.2" y1="797.3" x2="238.6" y2="744.9" stroke="#94a3b8" stroke-width="0.7" opacity="0.40"/>
<line x1="1004.2" y1="822.4" x2="1004.5" y2="135.4" stroke="#94a3b8" stroke-width="0.7" opacity="0.40"/>
<line x1="993.2" y1="811.1" x2="1004.5" y2="135.4" stroke="#94a3b8" stroke-width="0.7" opacity="0.40"/>
<line x1="988.5" y1="799.8" x2="1004.5" y2="135.4" stroke="#94a3b8" stroke-width="0.7" opacity="0.40"/>
<line x1="1006.0" y1="823.8" x2="1004.5" y2="135.4" stroke="#94a3b8" stroke-width="0.7" opacity="0.40"/>
<line x1="1003.4" y1="813.5" x2="1004.5" y2="135.4" stroke="#94a3b8" stroke-width="0.7" opacity="0.40"/>
<line x1="1023.4" y1="811.7" x2="1004.5" y2="135.4" stroke="#94a3b8" stroke-width="0.7" opacity="0.40"/>
<line x1="981.6" y1="832.3" x2="1004.5" y2="135.4" stroke="#94a3b8" stroke-width="0.7" opacity="0.40"/>
<line x1="488.8" y1="820.9" x2="501.7" y2="343.4" stroke="#94a3b8" stroke-width="0.7" opacity="0.40"/>
<line x1="1023.3" y1="838.2" x2="1004.5" y2="135.4" stroke="#94a3b8" stroke-width="0.7" opacity="0.40"/>
<line x1="1019.5" y1="808.0" x2="1004.5" y2="135.4" stroke="#94a3b8" stroke-width="0.7" opacity="0.40"/>
<line x1="1019.5" y1="808.0" x2="991.7" y2="412.4" stroke="#94a3b8" stroke-width="0.7" opacity="0.40"/>
<line x1="200.7" y1="819.0" x2="1004.5" y2="135.4" stroke="#94a3b8" stroke-width="0.7" opacity="0.40"/>
<line x1="1024.0" y1="817.4" x2="1004.5" y2="135.4" stroke="#94a3b8" stroke-width="0.7" opacity="0.40"/>
<line x1="1005.9" y1="810.2" x2="1004.5" y2="135.4" stroke="#94a3b8" stroke-width="0.7" opacity="0.40"/>
<line x1="982.8" y1="843.2" x2="1004.5" y2="135.4" stroke="#94a3b8" stroke-width="0.7" opacity="0.40"/>
<line x1="1790.2" y1="816.3" x2="1813.6" y2="796.8" stroke="#94a3b8" stroke-width="0.7" opacity="0.40"/>
<line x1="987.9" y1="831.7" x2="1004.5" y2="135.4" stroke="#94a3b8" stroke-width="0.7" opacity="0.40"/>
<line x1="987.9" y1="831.7" x2="991.7" y2="412.4" stroke="#94a3b8" stroke-width="0.7" opacity="0.40"/>
<line x1="995.3" y1="834.5" x2="1004.5" y2="135.4" stroke="#94a3b8" stroke-width="0.7" opacity="0.40"/>
<line x1="981.7" y1="831.6" x2="1004.5" y2="135.4" stroke="#94a3b8" stroke-width="0.7" opacity="0.40"/>
<line x1="1005.3" y1="824.9" x2="1004.5" y2="135.4" stroke="#94a3b8" stroke-width="0.7" opacity="0.40"/>
<line x1="1004.0" y1="825.8" x2="1004.5" y2="135.4" stroke="#94a3b8" stroke-width="0.7" opacity="0.40"/>
<line x1="1000.0" y1="845.1" x2="1004.5" y2="135.4" stroke="#94a3b8" stroke-width="0.7" opacity="0.40"/>
<line x1="1007.6" y1="844.7" x2="1004.5" y2="135.4" stroke="#94a3b8" stroke-width="0.7" opacity="0.40"/>
<line x1="981.0" y1="815.7" x2="1004.5" y2="135.4" stroke="#94a3b8" stroke-width="0.7" opacity="0.40"/>
<line x1="1012.3" y1="811.2" x2="1004.5" y2="135.4" stroke="#94a3b8" stroke-width="0.7" opacity="0.40"/>
<line x1="1009.1" y1="843.9" x2="1004.5" y2="135.4" stroke="#94a3b8" stroke-width="0.7" opacity="0.40"/>
<line x1="996.9" y1="819.8" x2="1004.5" y2="135.4" stroke="#94a3b8" stroke-width="0.7" opacity="0.40"/>
<line x1="1801.2" y1="831.3" x2="1004.5" y2="135.4" stroke="#94a3b8" stroke-width="0.7" opacity="0.40"/>
<line x1="1801.2" y1="831.3" x2="1813.6" y2="796.8" stroke="#94a3b8" stroke-width="0.7" opacity="0.40"/>
<line x1="1024.7" y1="831.2" x2="1004.5" y2="135.4" stroke="#94a3b8" stroke-width="0.7" opacity="0.40"/>
<line x1="987.9" y1="817.4" x2="1004.5" y2="135.4" stroke="#94a3b8" stroke-width="0.7" opacity="0.40"/>
<line x1="981.4" y1="839.3" x2="1004.5" y2="135.4" stroke="#94a3b8" stroke-width="0.7" opacity="0.40"/>
<line x1="986.0" y1="823.4" x2="1004.5" y2="135.4" stroke="#94a3b8" stroke-width="0.7" opacity="0.40"/>
<line x1="1022.5" y1="845.6" x2="1004.5" y2="135.4" stroke="#94a3b8" stroke-width="0.7" opacity="0.40"/>
<!-- Unknown matches -->
<circle cx="985.0" cy="1282.7" r="5.0" fill="#6366f1" opacity="0.8"/>
<circle cx="467.8" cy="590.2" r="6.7" fill="#ca8a04" opacity="0.8"/>
<text x="467.8" y="579.5" text-anchor="middle" class="match-label">Emily Hine (134)</text>
<circle cx="1021.9" cy="583.6" r="6.6" fill="#ca8a04" opacity="0.8"/>
<text x="1021.9" y="573.0" text-anchor="middle" class="match-label">jane_gessler (126)</text>
<circle cx="220.7" cy="606.2" r="6.5" fill="#ca8a04" opacity="0.8"/>
<text x="220.7" y="595.7" text-anchor="middle" class="match-label">Bruce Lightfoot (119)</text>
<circle cx="1006.7" cy="624.6" r="6.3" fill="#ca8a04" opacity="0.8"/>
<text x="1006.7" y="614.4" text-anchor="middle" class="match-label">Brenda Davey (101)</text>
<circle cx="1829.2" cy="625.7" r="6.1" fill="#16a34a" opacity="0.8"/>
<text x="1829.2" y="615.6" text-anchor="middle" class="match-label">Neil Farnworth (90)</text>
<circle cx="989.2" cy="673.4" r="5.9" fill="#16a34a" opacity="0.8"/>
<text x="989.2" y="663.5" text-anchor="middle" class="match-label">Angela Ganley (70)</text>
<circle cx="483.1" cy="712.9" r="5.7" fill="#16a34a" opacity="0.8"/>
<text x="483.1" y="703.1" text-anchor="middle" class="match-label">hazelhersant (58)</text>
<circle cx="1016.3" cy="710.5" r="5.7" fill="#16a34a" opacity="0.8"/>
<text x="1016.3" y="700.8" text-anchor="middle" class="match-label">Margaret Wagstaff (53)</text>
<circle cx="975.7" cy="732.5" r="5.6" fill="#16a34a" opacity="0.8"/>
<text x="975.7" y="722.8" text-anchor="middle" class="match-label">Ethel Hull (52)</text>
<circle cx="235.8" cy="733.4" r="5.6" fill="#0891b2" opacity="0.8"/>
<text x="235.8" y="723.8" text-anchor="middle" class="match-label">Michelle Morris (49)</text>
<circle cx="995.6" cy="732.8" r="5.6" fill="#0891b2" opacity="0.8"/>
<text x="995.6" y="698.2" text-anchor="middle" class="match-label">geri_wood (49)</text>
<circle cx="987.5" cy="738.1" r="5.6" fill="#0891b2" opacity="0.8"/>
<text x="987.5" y="703.6" text-anchor="middle" class="match-label">Valerie Simpson (46)</text>
<circle cx="214.1" cy="761.1" r="5.6" fill="#0891b2" opacity="0.8"/>
<text x="214.1" y="751.5" text-anchor="middle" class="match-label">Wendy Freeman (45)</text>
<circle cx="1805.2" cy="756.7" r="5.5" fill="#0891b2" opacity="0.8"/>
<text x="1805.2" y="747.1" text-anchor="middle" class="match-label">Thelma Howard (44)</text>
<circle cx="236.6" cy="766.7" r="5.5" fill="#0891b2" opacity="0.8"/>
<text x="236.6" y="732.1" text-anchor="middle" class="match-label">Kim Parker (44)</text>
<circle cx="493.8" cy="749.0" r="5.5" fill="#0891b2" opacity="0.8"/>
<text x="493.8" y="739.5" text-anchor="middle" class="match-label">Kate Ellis (42)</text>
<circle cx="1016.3" cy="766.1" r="5.5" fill="#0891b2" opacity="0.8"/>
<text x="1016.3" y="756.6" text-anchor="middle" class="match-label">Georgina Burton-Ro (42)</text>
<circle cx="1008.5" cy="750.7" r="5.5" fill="#0891b2" opacity="0.8"/>
<text x="1008.5" y="716.2" text-anchor="middle" class="match-label">RuthieStennett (40)</text>
<circle cx="196.8" cy="769.1" r="5.5" fill="#0891b2" opacity="0.8"/>
<text x="196.8" y="734.6" text-anchor="middle" class="match-label">Emily Evans (40)</text>
<circle cx="991.0" cy="777.5" r="5.5" fill="#0891b2" opacity="0.8"/>
<text x="991.0" y="768.1" text-anchor="middle" class="match-label">Katrina Barnes (39)</text>
<circle cx="976.4" cy="781.7" r="5.5" fill="#0891b2" opacity="0.8"/>
<text x="976.4" y="747.2" text-anchor="middle" class="match-label">Joseph James (38)</text>
<circle cx="1014.1" cy="751.6" r="5.5" fill="#0891b2" opacity="0.8"/>
<text x="1014.1" y="717.1" text-anchor="middle" class="match-label">Jill Lester (38)</text>
<circle cx="1023.3" cy="779.7" r="5.5" fill="#0891b2" opacity="0.8"/>
<text x="1023.3" y="745.3" text-anchor="middle" class="match-label">Caroline James (38)</text>
<circle cx="989.7" cy="771.3" r="5.5" fill="#0891b2" opacity="0.8"/>
<text x="989.7" y="736.8" text-anchor="middle" class="match-label">Paul Crook (37)</text>
<circle cx="226.9" cy="767.0" r="5.5" fill="#0891b2" opacity="0.8"/>
<text x="226.9" y="732.5" text-anchor="middle" class="match-label">Thomas Arnstein (36)</text>
<circle cx="1017.7" cy="759.4" r="5.5" fill="#0891b2" opacity="0.8"/>
<text x="1017.7" y="724.9" text-anchor="middle" class="match-label">diane rowles (36)</text>
<circle cx="987.2" cy="789.9" r="5.4" fill="#0891b2" opacity="0.8"/>
<text x="987.2" y="780.5" text-anchor="middle" class="match-label">Robert Greenhalgh (36)</text>
<circle cx="1012.0" cy="778.9" r="5.4" fill="#0891b2" opacity="0.8"/>
<text x="1012.0" y="744.4" text-anchor="middle" class="match-label">Peter Ennor (34)</text>
<circle cx="1015.9" cy="769.6" r="5.4" fill="#0891b2" opacity="0.8"/>
<text x="1015.9" y="735.2" text-anchor="middle" class="match-label">Roger Meredith (34)</text>
<circle cx="995.3" cy="772.1" r="5.4" fill="#0891b2" opacity="0.8"/>
<text x="995.3" y="737.7" text-anchor="middle" class="match-label">Leo Taylor-Jannati (34)</text>
<circle cx="982.4" cy="789.8" r="5.4" fill="#0891b2" opacity="0.8"/>
<text x="982.4" y="755.4" text-anchor="middle" class="match-label">Joanne Harrison (34)</text>
<circle cx="981.2" cy="790.5" r="5.4" fill="#0891b2" opacity="0.8"/>
<text x="981.2" y="756.0" text-anchor="middle" class="match-label">Kathleen Macnab (34)</text>
<circle cx="1014.1" cy="792.5" r="5.4" fill="#0891b2" opacity="0.8"/>
<text x="1014.1" y="758.1" text-anchor="middle" class="match-label">karen_pelletier90 (34)</text>
<circle cx="977.5" cy="806.4" r="5.4" fill="#0891b2" opacity="0.8"/>
<text x="977.5" y="797.0" text-anchor="middle" class="match-label">Em Crooks (33)</text>
<circle cx="982.5" cy="798.8" r="5.4" fill="#0891b2" opacity="0.8"/>
<text x="982.5" y="764.4" text-anchor="middle" class="match-label">Regine Aichlmayr (33)</text>
<circle cx="1019.7" cy="802.5" r="5.4" fill="#0891b2" opacity="0.8"/>
<text x="1019.7" y="768.0" text-anchor="middle" class="match-label">Julie Stonehouse (33)</text>
<circle cx="991.6" cy="794.5" r="5.4" fill="#0891b2" opacity="0.8"/>
<text x="991.6" y="760.0" text-anchor="middle" class="match-label">Jed Wood (33)</text>
<circle cx="1006.2" cy="807.6" r="5.4" fill="#0891b2" opacity="0.8"/>
<text x="1006.2" y="773.2" text-anchor="middle" class="match-label">SandyJoseph43 (33)</text>
<circle cx="1003.3" cy="806.4" r="5.4" fill="#0891b2" opacity="0.8"/>
<text x="1003.3" y="772.0" text-anchor="middle" class="match-label">Luke Rowles (33)</text>
<circle cx="984.0" cy="799.3" r="5.4" fill="#0891b2" opacity="0.8"/>
<text x="984.0" y="764.9" text-anchor="middle" class="match-label">Emma Alexander (33)</text>
<circle cx="1792.1" cy="789.9" r="5.4" fill="#0891b2" opacity="0.8"/>
<text x="1792.1" y="780.5" text-anchor="middle" class="match-label">Stuart Dennis (32)</text>
<circle cx="1011.8" cy="779.0" r="5.4" fill="#0891b2" opacity="0.8"/>
<text x="1011.8" y="744.6" text-anchor="middle" class="match-label">Andrew Burns (32)</text>
<circle cx="1001.5" cy="801.1" r="5.4" fill="#0891b2" opacity="0.8"/>
<text x="1001.5" y="766.7" text-anchor="middle" class="match-label">kathryn_sharples (32)</text>
<circle cx="1024.6" cy="793.8" r="5.4" fill="#0891b2" opacity="0.8"/>
<text x="1024.6" y="759.4" text-anchor="middle" class="match-label">Lynn Mackenna (32)</text>
<circle cx="977.9" cy="778.6" r="5.4" fill="#0891b2" opacity="0.8"/>
<text x="977.9" y="744.2" text-anchor="middle" class="match-label">llewellyn_jones88 (32)</text>
<circle cx="209.1" cy="799.4" r="5.4" fill="#0891b2" opacity="0.8"/>
<text x="209.1" y="790.0" text-anchor="middle" class="match-label">Susan_Wilcock (31)</text>
<circle cx="1010.8" cy="809.6" r="5.4" fill="#0891b2" opacity="0.8"/>
<text x="1010.8" y="775.2" text-anchor="middle" class="match-label">Clifford Bleakley (31)</text>
<circle cx="975.6" cy="782.1" r="5.4" fill="#0891b2" opacity="0.8"/>
<text x="975.6" y="747.7" text-anchor="middle" class="match-label">ullieam92 (31)</text>
<circle cx="1007.9" cy="804.2" r="5.4" fill="#0891b2" opacity="0.8"/>
<text x="1007.9" y="769.8" text-anchor="middle" class="match-label">Pamela Makin (31)</text>
<circle cx="993.9" cy="798.7" r="5.4" fill="#0891b2" opacity="0.8"/>
<text x="993.9" y="764.3" text-anchor="middle" class="match-label">George Maker (30)</text>
<circle cx="989.4" cy="820.5" r="5.4" fill="#0891b2" opacity="0.8"/>
<text x="989.4" y="811.1" text-anchor="middle" class="match-label">Heather Goldsmith (30)</text>
<circle cx="978.1" cy="788.1" r="5.4" fill="#0891b2" opacity="0.8"/>
<circle cx="1009.1" cy="824.8" r="5.4" fill="#0891b2" opacity="0.8"/>
<circle cx="1000.0" cy="811.7" r="5.4" fill="#0891b2" opacity="0.8"/>
<circle cx="997.2" cy="820.1" r="5.4" fill="#0891b2" opacity="0.8"/>
<circle cx="979.7" cy="825.6" r="5.4" fill="#0891b2" opacity="0.8"/>
<circle cx="479.7" cy="811.7" r="5.4" fill="#0891b2" opacity="0.8"/>
<circle cx="477.9" cy="811.6" r="5.4" fill="#0891b2" opacity="0.8"/>
<circle cx="468.5" cy="825.6" r="5.4" fill="#0891b2" opacity="0.8"/>
<circle cx="991.5" cy="819.0" r="5.4" fill="#0891b2" opacity="0.8"/>
<circle cx="1011.5" cy="792.2" r="5.4" fill="#0891b2" opacity="0.8"/>
<circle cx="993.6" cy="809.3" r="5.4" fill="#0891b2" opacity="0.8"/>
<circle cx="1024.5" cy="793.0" r="5.4" fill="#0891b2" opacity="0.8"/>
<circle cx="469.2" cy="802.5" r="5.4" fill="#0891b2" opacity="0.8"/>
<circle cx="1734.0" cy="796.0" r="5.4" fill="#0891b2" opacity="0.8"/>
<circle cx="460.9" cy="818.1" r="5.4" fill="#0891b2" opacity="0.8"/>
<circle cx="1024.2" cy="804.5" r="5.4" fill="#0891b2" opacity="0.8"/>
<circle cx="1013.4" cy="794.3" r="5.4" fill="#0891b2" opacity="0.8"/>
<circle cx="1017.1" cy="807.1" r="5.4" fill="#0891b2" opacity="0.8"/>
<circle cx="992.9" cy="813.8" r="5.4" fill="#0891b2" opacity="0.8"/>
<circle cx="1004.4" cy="806.9" r="5.4" fill="#0891b2" opacity="0.8"/>
<circle cx="1014.7" cy="802.2" r="5.4" fill="#0891b2" opacity="0.8"/>
<circle cx="216.5" cy="807.9" r="5.3" fill="#0891b2" opacity="0.8"/>
<circle cx="230.2" cy="797.3" r="5.3" fill="#0891b2" opacity="0.8"/>
<circle cx="1004.2" cy="822.4" r="5.3" fill="#0891b2" opacity="0.8"/>
<circle cx="993.2" cy="811.1" r="5.3" fill="#0891b2" opacity="0.8"/>
<circle cx="988.5" cy="799.8" r="5.3" fill="#0891b2" opacity="0.8"/>
<circle cx="1006.0" cy="823.8" r="5.3" fill="#0891b2" opacity="0.8"/>
<circle cx="1003.4" cy="813.5" r="5.3" fill="#0891b2" opacity="0.8"/>
<circle cx="1023.4" cy="811.7" r="5.3" fill="#0891b2" opacity="0.8"/>
<circle cx="989.6" cy="831.5" r="5.3" fill="#0891b2" opacity="0.8"/>
<circle cx="981.6" cy="832.3" r="5.3" fill="#0891b2" opacity="0.8"/>
<circle cx="989.9" cy="801.2" r="5.3" fill="#0891b2" opacity="0.8"/>
<circle cx="488.8" cy="820.9" r="5.3" fill="#0891b2" opacity="0.8"/>
<circle cx="987.2" cy="821.4" r="5.3" fill="#0891b2" opacity="0.8"/>
<circle cx="982.6" cy="822.2" r="5.3" fill="#0891b2" opacity="0.8"/>
<circle cx="1003.2" cy="812.6" r="5.3" fill="#0891b2" opacity="0.8"/>
<circle cx="1023.3" cy="838.2" r="5.3" fill="#0891b2" opacity="0.8"/>
<circle cx="1019.5" cy="808.0" r="5.3" fill="#0891b2" opacity="0.8"/>
<circle cx="978.9" cy="803.3" r="5.3" fill="#0891b2" opacity="0.8"/>
<circle cx="1022.1" cy="822.5" r="5.3" fill="#0891b2" opacity="0.8"/>
<circle cx="1020.9" cy="835.8" r="5.3" fill="#0891b2" opacity="0.8"/>
<circle cx="999.1" cy="842.5" r="5.3" fill="#0891b2" opacity="0.8"/>
<circle cx="1016.4" cy="842.5" r="5.3" fill="#0891b2" opacity="0.8"/>
<circle cx="998.8" cy="838.6" r="5.3" fill="#0891b2" opacity="0.8"/>
<circle cx="200.7" cy="819.0" r="5.3" fill="#0891b2" opacity="0.8"/>
<circle cx="1024.0" cy="817.4" r="5.3" fill="#0891b2" opacity="0.8"/>
<circle cx="1005.9" cy="810.2" r="5.3" fill="#0891b2" opacity="0.8"/>
<circle cx="982.8" cy="843.2" r="5.3" fill="#0891b2" opacity="0.8"/>
<circle cx="1003.7" cy="826.6" r="5.3" fill="#0891b2" opacity="0.8"/>
<circle cx="1024.1" cy="830.0" r="5.3" fill="#0891b2" opacity="0.8"/>
<circle cx="1790.2" cy="816.3" r="5.3" fill="#0891b2" opacity="0.8"/>
<circle cx="980.8" cy="810.2" r="5.3" fill="#0891b2" opacity="0.8"/>
<circle cx="982.7" cy="808.7" r="5.3" fill="#0891b2" opacity="0.8"/>
<circle cx="984.3" cy="811.6" r="5.3" fill="#0891b2" opacity="0.8"/>
<circle cx="987.9" cy="831.7" r="5.3" fill="#0891b2" opacity="0.8"/>
<circle cx="975.1" cy="816.6" r="5.3" fill="#0891b2" opacity="0.8"/>
<circle cx="995.3" cy="834.5" r="5.3" fill="#0891b2" opacity="0.8"/>
<circle cx="981.7" cy="831.6" r="5.3" fill="#0891b2" opacity="0.8"/>
<circle cx="1005.3" cy="824.9" r="5.3" fill="#0891b2" opacity="0.8"/>
<circle cx="1004.0" cy="825.8" r="5.3" fill="#0891b2" opacity="0.8"/>
<circle cx="986.7" cy="821.2" r="5.3" fill="#0891b2" opacity="0.8"/>
<circle cx="993.4" cy="808.6" r="5.3" fill="#0891b2" opacity="0.8"/>
<circle cx="990.6" cy="814.1" r="5.3" fill="#0891b2" opacity="0.8"/>
<circle cx="1000.0" cy="845.1" r="5.3" fill="#0891b2" opacity="0.8"/>
<circle cx="1007.6" cy="844.7" r="5.3" fill="#0891b2" opacity="0.8"/>
<circle cx="1013.5" cy="827.4" r="5.3" fill="#0891b2" opacity="0.8"/>
<circle cx="989.0" cy="839.1" r="5.3" fill="#0891b2" opacity="0.8"/>
<circle cx="981.0" cy="815.7" r="5.3" fill="#0891b2" opacity="0.8"/>
<circle cx="1022.8" cy="835.2" r="5.3" fill="#0891b2" opacity="0.8"/>
<circle cx="1012.3" cy="811.2" r="5.3" fill="#0891b2" opacity="0.8"/>
<circle cx="1009.1" cy="843.9" r="5.3" fill="#0891b2" opacity="0.8"/>
<circle cx="1004.5" cy="833.1" r="5.3" fill="#0891b2" opacity="0.8"/>
<circle cx="1011.5" cy="814.8" r="5.3" fill="#0891b2" opacity="0.8"/>
<circle cx="996.9" cy="819.8" r="5.3" fill="#0891b2" opacity="0.8"/>
<circle cx="1023.9" cy="836.5" r="5.3" fill="#0891b2" opacity="0.8"/>
<circle cx="1015.4" cy="837.9" r="5.3" fill="#0891b2" opacity="0.8"/>
<circle cx="1801.2" cy="831.3" r="5.3" fill="#0891b2" opacity="0.8"/>
<circle cx="1016.8" cy="828.7" r="5.3" fill="#0891b2" opacity="0.8"/>
<circle cx="1024.7" cy="831.2" r="5.3" fill="#0891b2" opacity="0.8"/>
<circle cx="994.2" cy="846.0" r="5.3" fill="#0891b2" opacity="0.8"/>
<circle cx="1012.2" cy="843.4" r="5.3" fill="#0891b2" opacity="0.8"/>
<circle cx="987.9" cy="817.4" r="5.3" fill="#0891b2" opacity="0.8"/>
<circle cx="981.4" cy="839.3" r="5.3" fill="#0891b2" opacity="0.8"/>
<circle cx="1014.4" cy="848.6" r="5.3" fill="#0891b2" opacity="0.8"/>
<circle cx="1004.0" cy="826.7" r="5.3" fill="#0891b2" opacity="0.8"/>
<circle cx="1006.2" cy="822.7" r="5.3" fill="#0891b2" opacity="0.8"/>
<circle cx="1011.3" cy="844.2" r="5.3" fill="#0891b2" opacity="0.8"/>
<circle cx="986.0" cy="823.4" r="5.3" fill="#0891b2" opacity="0.8"/>
<circle cx="1022.5" cy="845.6" r="5.3" fill="#0891b2" opacity="0.8"/>
<!-- Anchors (known relatives) -->
<circle cx="1004.5" cy="135.4" r="22.0" fill="#7c3aed" filter="url(#shadow)"/>
<text x="1004.5" y="108.4" text-anchor="middle" class="anchor-label" font-weight="bold">Rebecca Hyndman</text>
<text x="1004.5" y="97.4" text-anchor="middle" class="match-label">(2699 cM)</text>
<circle cx="501.7" cy="343.4" r="14.0" fill="#7c3aed" filter="url(#shadow)"/>
<text x="501.7" y="324.4" text-anchor="middle" class="anchor-label" font-weight="bold">Bruce Horrocks</text>
<text x="501.7" y="313.4" text-anchor="middle" class="match-label">(605 cM)</text>
<circle cx="991.7" cy="412.4" r="13.1" fill="#7c3aed" filter="url(#shadow)"/>
<text x="991.7" y="394.3" text-anchor="middle" class="anchor-label" font-weight="bold">Toby Yates</text>
<text x="991.7" y="383.3" text-anchor="middle" class="match-label">(466 cM)</text>
<circle cx="212.1" cy="619.1" r="10.8" fill="#7c3aed" filter="url(#shadow)"/>
<text x="212.1" y="603.3" text-anchor="middle" class="anchor-label" font-weight="bold">Helen Brammer</text>
<text x="212.1" y="592.3" text-anchor="middle" class="match-label">(113 cM)</text>
<circle cx="1814.1" cy="755.4" r="10.3" fill="#7c3aed" filter="url(#shadow)"/>
<text x="1814.1" y="715.1" text-anchor="middle" class="anchor-label" font-weight="bold">diane_lovick</text>
<text x="1814.1" y="704.1" text-anchor="middle" class="match-label">(48 cM)</text>
<circle cx="238.6" cy="744.9" r="10.3" fill="#7c3aed" filter="url(#shadow)"/>
<text x="238.6" y="704.6" text-anchor="middle" class="anchor-label" font-weight="bold">hugh copland</text>
<text x="238.6" y="693.6" text-anchor="middle" class="match-label">(44 cM)</text>
<circle cx="192.4" cy="785.4" r="10.3" fill="#7c3aed" filter="url(#shadow)"/>
<text x="192.4" y="745.1" text-anchor="middle" class="anchor-label" font-weight="bold">Rachel Wrathall</text>
<text x="192.4" y="734.1" text-anchor="middle" class="match-label">(38 cM)</text>
<circle cx="1813.6" cy="796.8" r="10.2" fill="#7c3aed" filter="url(#shadow)"/>
<text x="1813.6" y="756.5" text-anchor="middle" class="anchor-label" font-weight="bold">gstewart37</text>
<text x="1813.6" y="745.5" text-anchor="middle" class="match-label">(35 cM)</text>
<circle cx="1792.0" cy="775.6" r="10.2" fill="#7c3aed" filter="url(#shadow)"/>
<text x="1792.0" y="735.4" text-anchor="middle" class="anchor-label" font-weight="bold">Lynne Colley</text>
<text x="1792.0" y="724.4" text-anchor="middle" class="match-label">(34 cM)</text>

<!-- Legend -->
<rect x="1820" y="60" width="170" height="200" fill="white" stroke="#e5e7eb" rx="4"/>
<text x="1830" y="78" class="legend" font-weight="bold">cM to Chris (circles):</text>
<circle cx="1840" cy="95" r="5" fill="#dc2626"/>
<text x="1852" y="98" class="legend">500+ cM</text>
<circle cx="1840" cy="112" r="5" fill="#ea580c"/>
<text x="1852" y="115" class="legend">200-500 cM</text>
<circle cx="1840" cy="129" r="5" fill="#ca8a04"/>
<text x="1852" y="132" class="legend">100-200 cM</text>
<circle cx="1840" cy="146" r="5" fill="#16a34a"/>
<text x="1852" y="149" class="legend">50-100 cM</text>
<circle cx="1840" cy="163" r="5" fill="#0891b2"/>
<text x="1852" y="166" class="legend">20-50 cM</text>
<circle cx="1840" cy="180" r="7" fill="#7c3aed"/>
<text x="1852" y="183" class="legend">Known anchor</text>

<text x="1830" y="205" class="legend" font-weight="bold">Lines (shared DNA):</text>
<line x1="1835" y1="218" x2="1855" y2="218" stroke="#dc2626" stroke-width="1.5"/>
<text x="1860" y="221" class="legend">100+ cM</text>
<line x1="1835" y1="235" x2="1855" y2="235" stroke="#ea580c" stroke-width="1"/>
<text x="1860" y="238" class="legend">50-100 cM</text>
<line x1="1835" y1="252" x2="1855" y2="252" stroke="#94a3b8" stroke-width="0.7"/>
<text x="1860" y="255" class="legend">20-50 cM</text>

</svg>