<?xml version="1.0" encoding="UTF-8"?>
<svg xmlns="http://www.w3.org/2000/svg" viewBox="0 0 220 565" width="220" height="565" data-root-x="110.0">
  <defs>
    <style>
      .card { fill: #fff; stroke: #d0d0d0; stroke-width: 1; }
      .card:hover { stroke: #4a90a4; stroke-width: 2; cursor: pointer; }
      .avatar-male { fill: url(#maleGradient); }
      .avatar-female { fill: url(#femaleGradient); }
      .name { font-family: -apple-system, BlinkMacSystemFont, sans-serif; font-size: 11px; font-weight: 600; fill: #333; }
      .dates { font-family: -apple-system, BlinkMacSystemFont, sans-serif; font-size: 9px; fill: #666; }
      .spouse { font-family: -apple-system, BlinkMacSystemFont, sans-serif; font-size: 8px; fill: #888; font-style: italic; }
      .connector { stroke: #c0c0c0; stroke-width: 1.5; fill: none; }
      .connector-long { stroke: #c0c0c0; stroke-width: 1.5; fill: none; stroke-dasharray: 4,2; }
    </style>
    <linearGradient id="maleGradient" x1="0%" y1="0%" x2="0%" y2="100%">
      <stop offset="0%" style="stop-color:#6b8e9f"/>
      <stop offset="100%" style="stop-color:#4a7085"/>
    </linearGradient>
    <linearGradient id="femaleGradient" x1="0%" y1="0%" x2="0%" y2="100%">
      <stop offset="0%" style="stop-color:#c48b9f"/>
      <stop offset="100%" style="stop-color:#a06b7f"/>
    </linearGradient>
  </defs>

  <rect width="100%" height="100%" fill="#fff"/>

  <text x="110.0" y="30" text-anchor="middle" class="name" style="font-size: 16px;">
    Goodall Family Tree
  </text>
  <text x="110.0" y="48" text-anchor="middle" class="dates">
    Click on any person to view their details
  </text>
  <line x1="30" y1="58" x2="190" y2="58" stroke="#e0e0e0"/>

  
  <g class="person-card" data-person-id="575396">
    <rect x="30" y="80" width="160" height="55" rx="5" class="card"/>
    <circle cx="50" cy="108" r="14" class="avatar-male"/>
    <text x="70" y="100" class="name">John Goodall</text>
    <text x="70" y="113" class="dates">1774-1850</text>
    
  </g>
  <g class="person-card" data-person-id="575359">
    <rect x="30.0" y="180" width="160" height="55" rx="5" class="card"/>
    <circle cx="50.0" cy="208" r="14" class="avatar-male"/>
    <text x="70.0" y="200" class="name">William Anderson Goo...</text>
    <text x="70.0" y="213" class="dates">1812-1895</text>
    
  </g>
  <g class="person-card" data-person-id="575343">
    <rect x="30.0" y="280" width="160" height="55" rx="5" class="card"/>
    <circle cx="50.0" cy="308" r="14" class="avatar-male"/>
    <text x="70.0" y="300" class="name">William Goodall</text>
    <text x="70.0" y="313" class="dates">1850-</text>
    
  </g>
  <g class="person-card" data-person-id="575335">
    <rect x="30.0" y="380" width="160" height="55" rx="5" class="card"/>
    <circle cx="50.0" cy="408" r="14" class="avatar-male"/>
    <text x="70.0" y="400" class="name">William Cheetham Goo...</text>
    <text x="70.0" y="413" class="dates">1878-1929</text>
    
  </g>
  <g class="person-card" data-person-id="575332">
    <rect x="30.0" y="480" width="160" height="55" rx="5" class="card"/>
    <circle cx="50.0" cy="508" r="14" class="avatar-female"/>
    <text x="70.0" y="500" class="name">Marjorie Grace Goodall</text>
    <text x="70.0" y="513" class="dates">1920-2013</text>
    
  </g>  <path d="M110.0 435 L110.0 455" class="connector"/>
  <path d="M110.0 455 L110.0 455" class="connector"/>
  <path d="M110.0 455 L110.0 480" class="connector"/>
  <path d="M110.0 335 L110.0 355" class="connector"/>
  <path d="M110.0 355 L110.0 355" class="connector"/>
  <path d="M110.0 355 L110.0 380" class="connector"/>
  <path d="M110.0 235 L110.0 255" class="connector"/>
  <path d="M110.0 255 L110.0 255" class="connector"/>
  <path d="M110.0 255 L110.0 280" class="connector"/>
  <path d="M110.0 135 L110.0 155" class="connector"/>
  <path d="M110.0 155 L110.0 155" class="connector"/>
  <path d="M110.0 155 L110.0 180" class="connector"/>

</svg>