<?xml version="1.0" encoding="UTF-8"?>
<svg xmlns="http://www.w3.org/2000/svg" viewBox="0 0 800.0 435" width="800.0" height="435" data-root-x="400.0">
  <defs>
    <style>
      .card { fill: #fff; stroke: #d0d0d0; stroke-width: 1; }
      .card:hover { stroke: #4a90a4; stroke-width: 2; cursor: pointer; }
      .avatar-male { fill: url(#maleGradient); }
      .avatar-female { fill: url(#femaleGradient); }
      .name { font-family: -apple-system, BlinkMacSystemFont, sans-serif; font-size: 11px; font-weight: 600; fill: #333; }
      .dates { font-family: -apple-system, BlinkMacSystemFont, sans-serif; font-size: 9px; fill: #666; }
      .spouse { font-family: -apple-system, BlinkMacSystemFont, sans-serif; font-size: 8px; fill: #888; font-style: italic; }
      .connector { stroke: #c0c0c0; stroke-width: 1.5; fill: none; }
      .connector-long { stroke: #c0c0c0; stroke-width: 1.5; fill: none; stroke-dasharray: 4,2; }
    </style>
    <linearGradient id="maleGradient" x1="0%" y1="0%" x2="0%" y2="100%">
      <stop offset="0%" style="stop-color:#6b8e9f"/>
      <stop offset="100%" style="stop-color:#4a7085"/>
    </linearGradient>
    <linearGradient id="femaleGradient" x1="0%" y1="0%" x2="0%" y2="100%">
      <stop offset="0%" style="stop-color:#c48b9f"/>
      <stop offset="100%" style="stop-color:#a06b7f"/>
    </linearGradient>
  </defs>

  <rect width="100%" height="100%" fill="#fff"/>

  <text x="400.0" y="30" text-anchor="middle" class="name" style="font-size: 16px;">
    Wood Family Tree
  </text>
  <text x="400.0" y="48" text-anchor="middle" class="dates">
    Click on any person to view their details
  </text>
  <line x1="30" y1="58" x2="770.0" y2="58" stroke="#e0e0e0"/>

  
  <g class="person-card" data-person-id="56">
    <rect x="320.0" y="80" width="160" height="55" rx="5" class="card"/>
    <circle cx="340.0" cy="108" r="14" class="avatar-male"/>
    <text x="360.0" y="100" class="name">Joseph Wood</text>
    <text x="360.0" y="113" class="dates">1830-</text>
    <text x="360.0" y="127" class="spouse">m. Elizabeth Wood</text>
  </g>
  <g class="person-card" data-person-id="62">
    <rect x="50.0" y="250" width="160" height="55" rx="5" class="card"/>
    <circle cx="70.0" cy="278" r="14" class="avatar-female"/>
    <text x="90.0" y="270" class="name">Fanny Wood</text>
    <text x="90.0" y="283" class="dates">1847-</text>
    
  </g>
  <g class="person-card" data-person-id="59">
    <rect x="230.0" y="250" width="160" height="55" rx="5" class="card"/>
    <circle cx="250.0" cy="278" r="14" class="avatar-male"/>
    <text x="270.0" y="270" class="name">Frank Wood</text>
    <text x="270.0" y="283" class="dates">1858-</text>
    
  </g>
  <g class="person-card" data-person-id="61">
    <rect x="410.0" y="250" width="160" height="55" rx="5" class="card"/>
    <circle cx="430.0" cy="278" r="14" class="avatar-female"/>
    <text x="450.0" y="270" class="name">Sarah Wood</text>
    <text x="450.0" y="283" class="dates">1861-</text>
    
  </g>
  <g class="person-card" data-person-id="64">
    <rect x="590.0" y="250" width="160" height="55" rx="5" class="card"/>
    <circle cx="610.0" cy="278" r="14" class="avatar-female"/>
    <text x="630.0" y="270" class="name">Agnes Wood</text>
    <text x="630.0" y="283" class="dates">1868-</text>
    
  </g>
  <g class="person-card" data-person-id="58">
    <rect x="140.0" y="330" width="160" height="55" rx="5" class="card"/>
    <circle cx="160.0" cy="358" r="14" class="avatar-female"/>
    <text x="180.0" y="350" class="name">Ann Wood</text>
    <text x="180.0" y="363" class="dates">1855-</text>
    
  </g>
  <g class="person-card" data-person-id="60">
    <rect x="320.0" y="330" width="160" height="55" rx="5" class="card"/>
    <circle cx="340.0" cy="358" r="14" class="avatar-male"/>
    <text x="360.0" y="350" class="name">Seth Wood</text>
    <text x="360.0" y="363" class="dates">1860-</text>
    
  </g>
  <g class="person-card" data-person-id="63">
    <rect x="500.0" y="330" width="160" height="55" rx="5" class="card"/>
    <circle cx="520.0" cy="358" r="14" class="avatar-male"/>
    <text x="540.0" y="350" class="name">Robert Wood</text>
    <text x="540.0" y="363" class="dates">1865-</text>
    
  </g>  <path d="M400.0 135 L400.0 165" class="connector"/>
  <path d="M130.0 165 L670.0 165" class="connector"/>
  <path d="M130.0 165 L130.0 250" class="connector"/>
  <path d="M310.0 165 L310.0 250" class="connector"/>
  <path d="M490.0 165 L490.0 250" class="connector"/>
  <path d="M670.0 165 L670.0 250" class="connector"/>
  <path d="M220.0 165 L220.0 330" class="connector-long"/>
  <path d="M400.0 165 L400.0 330" class="connector-long"/>
  <path d="M580.0 165 L580.0 330" class="connector-long"/>

</svg>