<?xml version="1.0" encoding="UTF-8"?>
<svg xmlns="http://www.w3.org/2000/svg" viewBox="0 0 1750.0 965" width="1750.0" height="965" data-root-x="960.0">
  <defs>
    <style>
      .card { fill: #fff; stroke: #d0d0d0; stroke-width: 1; }
      .card:hover { stroke: #4a90a4; stroke-width: 2; cursor: pointer; }
      .avatar-male { fill: url(#maleGradient); }
      .avatar-female { fill: url(#femaleGradient); }
      .name { font-family: -apple-system, BlinkMacSystemFont, sans-serif; font-size: 11px; font-weight: 600; fill: #333; }
      .dates { font-family: -apple-system, BlinkMacSystemFont, sans-serif; font-size: 9px; fill: #666; }
      .spouse { font-family: -apple-system, BlinkMacSystemFont, sans-serif; font-size: 8px; fill: #888; font-style: italic; }
      .connector { stroke: #c0c0c0; stroke-width: 1.5; fill: none; }
      .connector-long { stroke: #c0c0c0; stroke-width: 1.5; fill: none; stroke-dasharray: 4,2; }
    </style>
    <linearGradient id="maleGradient" x1="0%" y1="0%" x2="0%" y2="100%">
      <stop offset="0%" style="stop-color:#6b8e9f"/>
      <stop offset="100%" style="stop-color:#4a7085"/>
    </linearGradient>
    <linearGradient id="femaleGradient" x1="0%" y1="0%" x2="0%" y2="100%">
      <stop offset="0%" style="stop-color:#c48b9f"/>
      <stop offset="100%" style="stop-color:#a06b7f"/>
    </linearGradient>
  </defs>

  <rect width="100%" height="100%" fill="#fff"/>

  <text x="960.0" y="30" text-anchor="middle" class="name" style="font-size: 16px;">
    Worthington Family Tree
  </text>
  <text x="960.0" y="48" text-anchor="middle" class="dates">
    Click on any person to view their details
  </text>
  <line x1="30" y1="58" x2="1720.0" y2="58" stroke="#e0e0e0"/>

  
  <g class="person-card" data-person-id="575426">
    <rect x="880.0" y="80" width="160" height="55" rx="5" class="card"/>
    <circle cx="900.0" cy="108" r="14" class="avatar-male"/>
    <text x="920.0" y="100" class="name">Henry Worthington</text>
    <text x="920.0" y="113" class="dates">1777-1854</text>
    
  </g>
  <g class="person-card" data-person-id="575381">
    <rect x="710.0" y="180" width="160" height="55" rx="5" class="card"/>
    <circle cx="730.0" cy="208" r="14" class="avatar-male"/>
    <text x="750.0" y="200" class="name">James Worthington</text>
    <text x="750.0" y="213" class="dates">1791-1857</text>
    
  </g>
  <g class="person-card" data-person-id="575294">
    <rect x="625.0" y="280" width="160" height="55" rx="5" class="card"/>
    <circle cx="645.0" cy="308" r="14" class="avatar-male"/>
    <text x="665.0" y="300" class="name">Richard Worthington</text>
    <text x="665.0" y="313" class="dates">1823-1886</text>
    
  </g>
  <g class="person-card" data-person-id="575295">
    <rect x="540.0" y="380" width="160" height="55" rx="5" class="card"/>
    <circle cx="560.0" cy="408" r="14" class="avatar-male"/>
    <text x="580.0" y="400" class="name">Levi Worthington</text>
    <text x="580.0" y="413" class="dates">1848-1887</text>
    
  </g>
  <g class="person-card" data-person-id="575296">
    <rect x="710.0" y="380" width="160" height="55" rx="5" class="card"/>
    <circle cx="730.0" cy="408" r="14" class="avatar-female"/>
    <text x="750.0" y="400" class="name">Mary J Worthington</text>
    <text x="750.0" y="413" class="dates">1851-1895</text>
    
  </g>
  <g class="person-card" data-person-id="575297">
    <rect x="710.0" y="480" width="160" height="55" rx="5" class="card"/>
    <circle cx="730.0" cy="508" r="14" class="avatar-female"/>
    <text x="750.0" y="500" class="name">Mary Ann Worthington</text>
    <text x="750.0" y="513" class="dates">1869-1951</text>
    
  </g>  <path d="M790.0 435 L790.0 455" class="connector"/>
  <path d="M790.0 455 L790.0 455" class="connector"/>
  <path d="M790.0 455 L790.0 480" class="connector"/>
  <path d="M705.0 335 L705.0 355" class="connector"/>
  <path d="M620.0 355 L790.0 355" class="connector"/>
  <path d="M620.0 355 L620.0 380" class="connector"/>
  <path d="M790.0 355 L790.0 380" class="connector"/>

  <g class="person-card" data-person-id="575351">
    <rect x="795.0" y="280" width="160" height="55" rx="5" class="card"/>
    <circle cx="815.0" cy="308" r="14" class="avatar-male"/>
    <text x="835.0" y="300" class="name">George WORTHINGTON</text>
    <text x="835.0" y="313" class="dates">1825-1896</text>
    <text x="835.0" y="327" class="spouse">m. Nancy Worthington</text>
  </g>
  <g class="person-card" data-person-id="519213">
    <rect x="625.0" y="380" width="160" height="55" rx="5" class="card"/>
    <circle cx="645.0" cy="408" r="14" class="avatar-male"/>
    <text x="665.0" y="400" class="name">Charles Henry Worthi...</text>
    <text x="665.0" y="413" class="dates">1844-</text>
    <text x="665.0" y="427" class="spouse">m. Clara Roberts</text>
  </g>
  <g class="person-card" data-person-id="575339">
    <rect x="795.0" y="380" width="160" height="55" rx="5" class="card"/>
    <circle cx="815.0" cy="408" r="14" class="avatar-male"/>
    <text x="835.0" y="400" class="name">James WORTHINGTON</text>
    <text x="835.0" y="413" class="dates">1846-1899</text>
    <text x="835.0" y="427" class="spouse">m. Jane Worthington</text>
  </g>
  <g class="person-card" data-person-id="575303">
    <rect x="30.0" y="480" width="160" height="55" rx="5" class="card"/>
    <circle cx="50.0" cy="508" r="14" class="avatar-male"/>
    <text x="70.0" y="500" class="name">George Worthington</text>
    <text x="70.0" y="513" class="dates">1868-1916</text>
    
  </g>
  <g class="person-card" data-person-id="575305">
    <rect x="30.0" y="580" width="160" height="55" rx="5" class="card"/>
    <circle cx="50.0" cy="608" r="14" class="avatar-female"/>
    <text x="70.0" y="600" class="name">Norah Worthington</text>
    <text x="70.0" y="613" class="dates">1908-1978</text>
    
  </g>  <path d="M110.0 535 L110.0 555" class="connector"/>
  <path d="M110.0 555 L110.0 555" class="connector"/>
  <path d="M110.0 555 L110.0 580" class="connector"/>

  <g class="person-card" data-person-id="575980">
    <rect x="200.0" y="480" width="160" height="55" rx="5" class="card"/>
    <circle cx="220.0" cy="508" r="14" class="avatar-male"/>
    <text x="240.0" y="500" class="name">Charles Henry Worthi...</text>
    <text x="240.0" y="513" class="dates">1871-</text>
    <text x="240.0" y="527" class="spouse">m. Clara Worthington</text>
  </g>
  <g class="person-card" data-person-id="575982">
    <rect x="115.0" y="580" width="160" height="55" rx="5" class="card"/>
    <circle cx="135.0" cy="608" r="14" class="avatar-male"/>
    <text x="155.0" y="600" class="name">John Stainsby Worthi...</text>
    <text x="155.0" y="613" class="dates">1895-</text>
    
  </g>
  <g class="person-card" data-person-id="575983">
    <rect x="285.0" y="580" width="160" height="55" rx="5" class="card"/>
    <circle cx="305.0" cy="608" r="14" class="avatar-male"/>
    <text x="325.0" y="600" class="name">James Lesle Worthing...</text>
    <text x="325.0" y="613" class="dates">1902-</text>
    
  </g>  <path d="M280.0 535 L280.0 555" class="connector"/>
  <path d="M195.0 555 L365.0 555" class="connector"/>
  <path d="M195.0 555 L195.0 580" class="connector"/>
  <path d="M365.0 555 L365.0 580" class="connector"/>

  <g class="person-card" data-person-id="575304">
    <rect x="370.0" y="480" width="160" height="55" rx="5" class="card"/>
    <circle cx="390.0" cy="508" r="14" class="avatar-male"/>
    <text x="410.0" y="500" class="name">GEORGE Worthington</text>
    <text x="410.0" y="513" class="dates">1874-1961</text>
    
  </g>
  <g class="person-card" data-person-id="575306">
    <rect x="370.0" y="580" width="160" height="55" rx="5" class="card"/>
    <circle cx="390.0" cy="608" r="14" class="avatar-male"/>
    <text x="410.0" y="600" class="name">Andrew Worthington</text>
    <text x="410.0" y="613" class="dates">1908-1990</text>
    
  </g>  <path d="M450.0 535 L450.0 555" class="connector"/>
  <path d="M450.0 555 L450.0 555" class="connector"/>
  <path d="M450.0 555 L450.0 580" class="connector"/>

  <g class="person-card" data-person-id="575985">
    <rect x="540.0" y="480" width="160" height="55" rx="5" class="card"/>
    <circle cx="560.0" cy="508" r="14" class="avatar-female"/>
    <text x="580.0" y="500" class="name">Mary A Worthington</text>
    <text x="580.0" y="513" class="dates">1875-</text>
    
  </g>
  <g class="person-card" data-person-id="575986">
    <rect x="710.0" y="480" width="160" height="55" rx="5" class="card"/>
    <circle cx="730.0" cy="508" r="14" class="avatar-male"/>
    <text x="750.0" y="500" class="name">John Worthington</text>
    <text x="750.0" y="513" class="dates">1877-</text>
    
  </g>
  <g class="person-card" data-person-id="575333">
    <rect x="880.0" y="480" width="160" height="55" rx="5" class="card"/>
    <circle cx="900.0" cy="508" r="14" class="avatar-male"/>
    <text x="920.0" y="500" class="name">Arthur Worthington</text>
    <text x="920.0" y="513" class="dates">1879-1957</text>
    
  </g>
  <g class="person-card" data-person-id="575331">
    <rect x="880.0" y="580" width="160" height="55" rx="5" class="card"/>
    <circle cx="900.0" cy="608" r="14" class="avatar-male"/>
    <text x="920.0" y="600" class="name">Arthur Gordon L Wort...</text>
    <text x="920.0" y="613" class="dates">1922-2000</text>
    
  </g>
  <g class="person-card" data-person-id="575329">
    <rect x="880.0" y="680" width="160" height="55" rx="5" class="card"/>
    <circle cx="900.0" cy="708" r="14" class="avatar-male"/>
    <text x="920.0" y="700" class="name">Jonathan P Worthington</text>
    <text x="920.0" y="713" class="dates">1951-</text>
    
  </g>
  <g class="person-card" data-person-id="548794">
    <rect x="710.0" y="780" width="160" height="55" rx="5" class="card"/>
    <circle cx="730.0" cy="808" r="14" class="avatar-male"/>
    <text x="750.0" y="800" class="name">Timothy Jonathon Pat...</text>
    <text x="750.0" y="813" class="dates">1974-</text>
    
  </g>
  <g class="person-card" data-person-id="548795">
    <rect x="625.0" y="880" width="160" height="55" rx="5" class="card"/>
    <circle cx="645.0" cy="908" r="14" class="avatar-male"/>
    <text x="665.0" y="900" class="name">Hugo Worthington</text>
    <text x="665.0" y="913" class="dates">2016-</text>
    
  </g>
  <g class="person-card" data-person-id="548796">
    <rect x="795.0" y="880" width="160" height="55" rx="5" class="card"/>
    <circle cx="815.0" cy="908" r="14" class="avatar-male"/>
    <text x="835.0" y="900" class="name">Zachary Worthington</text>
    <text x="835.0" y="913" class="dates">2019-</text>
    
  </g>  <path d="M790.0 835 L790.0 855" class="connector"/>
  <path d="M705.0 855 L875.0 855" class="connector"/>
  <path d="M705.0 855 L705.0 880" class="connector"/>
  <path d="M875.0 855 L875.0 880" class="connector"/>

  <g class="person-card" data-person-id="519040">
    <rect x="880.0" y="780" width="160" height="55" rx="5" class="card"/>
    <circle cx="900.0" cy="808" r="14" class="avatar-male"/>
    <text x="920.0" y="800" class="name">Chris Worthington</text>
    <text x="920.0" y="813" class="dates">1976-</text>
    
  </g>
  <g class="person-card" data-person-id="511010">
    <rect x="625.0" y="880" width="160" height="55" rx="5" class="card"/>
    <circle cx="645.0" cy="908" r="14" class="avatar-female"/>
    <text x="665.0" y="900" class="name">Rebecca Worthington</text>
    <text x="665.0" y="913" class="dates"></text>
    
  </g>
  <g class="person-card" data-person-id="575972">
    <rect x="795.0" y="880" width="160" height="55" rx="5" class="card"/>
    <circle cx="815.0" cy="908" r="14" class="avatar-female"/>
    <text x="835.0" y="900" class="name">Helen Worthington</text>
    <text x="835.0" y="913" class="dates"></text>
    
  </g>
  <g class="person-card" data-person-id="575973">
    <rect x="965.0" y="880" width="160" height="55" rx="5" class="card"/>
    <circle cx="985.0" cy="908" r="14" class="avatar-female"/>
    <text x="1005.0" y="900" class="name">Rachel Worthington</text>
    <text x="1005.0" y="913" class="dates"></text>
    
  </g>
  <g class="person-card" data-person-id="575974">
    <rect x="1135.0" y="880" width="160" height="55" rx="5" class="card"/>
    <circle cx="1155.0" cy="908" r="14" class="avatar-male"/>
    <text x="1175.0" y="900" class="name">Hugh Worthington</text>
    <text x="1175.0" y="913" class="dates"></text>
    
  </g>  <path d="M960.0 835 L960.0 855" class="connector"/>
  <path d="M705.0 855 L1215.0 855" class="connector"/>
  <path d="M705.0 855 L705.0 880" class="connector"/>
  <path d="M875.0 855 L875.0 880" class="connector"/>
  <path d="M1045.0 855 L1045.0 880" class="connector"/>
  <path d="M1215.0 855 L1215.0 880" class="connector"/>

  <g class="person-card" data-person-id="511041">
    <rect x="1050.0" y="780" width="160" height="55" rx="5" class="card"/>
    <circle cx="1070.0" cy="808" r="14" class="avatar-female"/>
    <text x="1090.0" y="800" class="name">Jennifer Clare Worth...</text>
    <text x="1090.0" y="813" class="dates">1982-</text>
    
  </g>
  <g class="person-card" data-person-id="548797">
    <rect x="965.0" y="880" width="160" height="55" rx="5" class="card"/>
    <circle cx="985.0" cy="908" r="14" class="avatar-male"/>
    <text x="1005.0" y="900" class="name">Joe Hyndman</text>
    <text x="1005.0" y="913" class="dates">2010-</text>
    
  </g>
  <g class="person-card" data-person-id="548798">
    <rect x="1135.0" y="880" width="160" height="55" rx="5" class="card"/>
    <circle cx="1155.0" cy="908" r="14" class="avatar-female"/>
    <text x="1175.0" y="900" class="name">Grace Hyndman</text>
    <text x="1175.0" y="913" class="dates">2014-</text>
    
  </g>  <path d="M1130.0 835 L1130.0 855" class="connector"/>
  <path d="M1045.0 855 L1215.0 855" class="connector"/>
  <path d="M1045.0 855 L1045.0 880" class="connector"/>
  <path d="M1215.0 855 L1215.0 880" class="connector"/>
  <path d="M960.0 735 L960.0 755" class="connector"/>
  <path d="M790.0 755 L1130.0 755" class="connector"/>
  <path d="M790.0 755 L790.0 780" class="connector"/>
  <path d="M960.0 755 L960.0 780" class="connector"/>
  <path d="M1130.0 755 L1130.0 780" class="connector"/>
  <path d="M960.0 635 L960.0 655" class="connector"/>
  <path d="M960.0 655 L960.0 655" class="connector"/>
  <path d="M960.0 655 L960.0 680" class="connector"/>
  <path d="M960.0 535 L960.0 555" class="connector"/>
  <path d="M960.0 555 L960.0 555" class="connector"/>
  <path d="M960.0 555 L960.0 580" class="connector"/>

  <g class="person-card" data-person-id="575987">
    <rect x="1050.0" y="480" width="160" height="55" rx="5" class="card"/>
    <circle cx="1070.0" cy="508" r="14" class="avatar-female"/>
    <text x="1090.0" y="500" class="name">Florence Worthington</text>
    <text x="1090.0" y="513" class="dates">1882-</text>
    
  </g>
  <g class="person-card" data-person-id="575988">
    <rect x="1220.0" y="480" width="160" height="55" rx="5" class="card"/>
    <circle cx="1240.0" cy="508" r="14" class="avatar-female"/>
    <text x="1260.0" y="500" class="name">Jane Worthington</text>
    <text x="1260.0" y="513" class="dates">1883-</text>
    
  </g>
  <g class="person-card" data-person-id="575989">
    <rect x="1390.0" y="480" width="160" height="55" rx="5" class="card"/>
    <circle cx="1410.0" cy="508" r="14" class="avatar-male"/>
    <text x="1430.0" y="500" class="name">Merian Worthington</text>
    <text x="1430.0" y="513" class="dates">1884-</text>
    
  </g>
  <g class="person-card" data-person-id="575990">
    <rect x="1560.0" y="480" width="160" height="55" rx="5" class="card"/>
    <circle cx="1580.0" cy="508" r="14" class="avatar-male"/>
    <text x="1600.0" y="500" class="name">Lilly Worthington</text>
    <text x="1600.0" y="513" class="dates">1888-</text>
    
  </g>  <path d="M875.0 435 L875.0 455" class="connector"/>
  <path d="M110.0 455 L1640.0 455" class="connector"/>
  <path d="M110.0 455 L110.0 480" class="connector"/>
  <path d="M280.0 455 L280.0 480" class="connector"/>
  <path d="M450.0 455 L450.0 480" class="connector"/>
  <path d="M620.0 455 L620.0 480" class="connector"/>
  <path d="M790.0 455 L790.0 480" class="connector"/>
  <path d="M960.0 455 L960.0 480" class="connector"/>
  <path d="M1130.0 455 L1130.0 480" class="connector"/>
  <path d="M1300.0 455 L1300.0 480" class="connector"/>
  <path d="M1470.0 455 L1470.0 480" class="connector"/>
  <path d="M1640.0 455 L1640.0 480" class="connector"/>

  <g class="person-card" data-person-id="575979">
    <rect x="965.0" y="380" width="160" height="55" rx="5" class="card"/>
    <circle cx="985.0" cy="408" r="14" class="avatar-male"/>
    <text x="1005.0" y="400" class="name">William Worthington</text>
    <text x="1005.0" y="413" class="dates">1851-</text>
    
  </g>  <path d="M875.0 335 L875.0 355" class="connector"/>
  <path d="M705.0 355 L1045.0 355" class="connector"/>
  <path d="M705.0 355 L705.0 380" class="connector"/>
  <path d="M875.0 355 L875.0 380" class="connector"/>
  <path d="M1045.0 355 L1045.0 380" class="connector"/>
  <path d="M790.0 235 L790.0 255" class="connector"/>
  <path d="M705.0 255 L875.0 255" class="connector"/>
  <path d="M705.0 255 L705.0 280" class="connector"/>
  <path d="M875.0 255 L875.0 280" class="connector"/>

  <g class="person-card" data-person-id="575309">
    <rect x="880.0" y="180" width="160" height="55" rx="5" class="card"/>
    <circle cx="900.0" cy="208" r="14" class="avatar-female"/>
    <text x="920.0" y="200" class="name">Margaret Worthington</text>
    <text x="920.0" y="213" class="dates">1805-1871</text>
    
  </g>
  <g class="person-card" data-person-id="575314">
    <rect x="1050.0" y="180" width="160" height="55" rx="5" class="card"/>
    <circle cx="1070.0" cy="208" r="14" class="avatar-male"/>
    <text x="1090.0" y="200" class="name">William Worthington</text>
    <text x="1090.0" y="213" class="dates">1813-1894</text>
    <text x="1090.0" y="227" class="spouse">m. Sarah Worthington</text>
  </g>
  <g class="person-card" data-person-id="575315">
    <rect x="710.0" y="280" width="160" height="55" rx="5" class="card"/>
    <circle cx="730.0" cy="308" r="14" class="avatar-male"/>
    <text x="750.0" y="300" class="name">PETER WORTHINGTON</text>
    <text x="750.0" y="313" class="dates">1837-1907</text>
    
  </g>
  <g class="person-card" data-person-id="575316">
    <rect x="710.0" y="380" width="160" height="55" rx="5" class="card"/>
    <circle cx="730.0" cy="408" r="14" class="avatar-female"/>
    <text x="750.0" y="400" class="name">Sarah Worthington</text>
    <text x="750.0" y="413" class="dates">1860-1891</text>
    
  </g>  <path d="M790.0 335 L790.0 355" class="connector"/>
  <path d="M790.0 355 L790.0 355" class="connector"/>
  <path d="M790.0 355 L790.0 380" class="connector"/>

  <g class="person-card" data-person-id="576327">
    <rect x="880.0" y="280" width="160" height="55" rx="5" class="card"/>
    <circle cx="900.0" cy="308" r="14" class="avatar-male"/>
    <text x="920.0" y="300" class="name">John K Worthington</text>
    <text x="920.0" y="313" class="dates">1841-</text>
    
  </g>
  <g class="person-card" data-person-id="576328">
    <rect x="1050.0" y="280" width="160" height="55" rx="5" class="card"/>
    <circle cx="1070.0" cy="308" r="14" class="avatar-male"/>
    <text x="1090.0" y="300" class="name">Thomas Worthington</text>
    <text x="1090.0" y="313" class="dates">1843-</text>
    
  </g>
  <g class="person-card" data-person-id="576329">
    <rect x="1220.0" y="280" width="160" height="55" rx="5" class="card"/>
    <circle cx="1240.0" cy="308" r="14" class="avatar-male"/>
    <text x="1260.0" y="300" class="name">Edmund Worthington</text>
    <text x="1260.0" y="313" class="dates">1845-</text>
    
  </g>
  <g class="person-card" data-person-id="576330">
    <rect x="1390.0" y="280" width="160" height="55" rx="5" class="card"/>
    <circle cx="1410.0" cy="308" r="14" class="avatar-male"/>
    <text x="1430.0" y="300" class="name">William K Worthington</text>
    <text x="1430.0" y="313" class="dates">1850-</text>
    
  </g>  <path d="M1130.0 235 L1130.0 255" class="connector"/>
  <path d="M790.0 255 L1470.0 255" class="connector"/>
  <path d="M790.0 255 L790.0 280" class="connector"/>
  <path d="M960.0 255 L960.0 280" class="connector"/>
  <path d="M1130.0 255 L1130.0 280" class="connector"/>
  <path d="M1300.0 255 L1300.0 280" class="connector"/>
  <path d="M1470.0 255 L1470.0 280" class="connector"/>
  <path d="M960.0 135 L960.0 155" class="connector"/>
  <path d="M790.0 155 L1130.0 155" class="connector"/>
  <path d="M790.0 155 L790.0 180" class="connector"/>
  <path d="M960.0 155 L960.0 180" class="connector"/>
  <path d="M1130.0 155 L1130.0 180" class="connector"/>

</svg>