<?xml version="1.0" encoding="UTF-8"?>
<svg xmlns="http://www.w3.org/2000/svg" viewBox="0 0 560.0 265" width="560.0" height="265" data-root-x="280.0">
  <defs>
    <style>
      .card { fill: #fff; stroke: #d0d0d0; stroke-width: 1; }
      .card:hover { stroke: #4a90a4; stroke-width: 2; cursor: pointer; }
      .avatar-male { fill: url(#maleGradient); }
      .avatar-female { fill: url(#femaleGradient); }
      .name { font-family: -apple-system, BlinkMacSystemFont, sans-serif; font-size: 11px; font-weight: 600; fill: #333; }
      .dates { font-family: -apple-system, BlinkMacSystemFont, sans-serif; font-size: 9px; fill: #666; }
      .spouse { font-family: -apple-system, BlinkMacSystemFont, sans-serif; font-size: 8px; fill: #888; font-style: italic; }
      .connector { stroke: #c0c0c0; stroke-width: 1.5; fill: none; }
      .connector-long { stroke: #c0c0c0; stroke-width: 1.5; fill: none; stroke-dasharray: 4,2; }
    </style>
    <linearGradient id="maleGradient" x1="0%" y1="0%" x2="0%" y2="100%">
      <stop offset="0%" style="stop-color:#6b8e9f"/>
      <stop offset="100%" style="stop-color:#4a7085"/>
    </linearGradient>
    <linearGradient id="femaleGradient" x1="0%" y1="0%" x2="0%" y2="100%">
      <stop offset="0%" style="stop-color:#c48b9f"/>
      <stop offset="100%" style="stop-color:#a06b7f"/>
    </linearGradient>
  </defs>

  <rect width="100%" height="100%" fill="#fff"/>

  <text x="280.0" y="30" text-anchor="middle" class="name" style="font-size: 16px;">
    Wrathall Family Tree
  </text>
  <text x="280.0" y="48" text-anchor="middle" class="dates">
    Click on any person to view their details
  </text>
  <line x1="30" y1="58" x2="530.0" y2="58" stroke="#e0e0e0"/>

  
  <g class="person-card" data-person-id="1">
    <rect x="200.0" y="80" width="160" height="55" rx="5" class="card"/>
    <circle cx="220.0" cy="108" r="14" class="avatar-male"/>
    <text x="240.0" y="100" class="name">Henry S. Wrathall</text>
    <text x="240.0" y="113" class="dates">1843-</text>
    <text x="240.0" y="127" class="spouse">m. Mary Alice Metcalfe</text>
  </g>
  <g class="person-card" data-person-id="3">
    <rect x="30.0" y="180" width="160" height="55" rx="5" class="card"/>
    <circle cx="50.0" cy="208" r="14" class="avatar-female"/>
    <text x="70.0" y="200" class="name">Constance V. Wrathall</text>
    <text x="70.0" y="213" class="dates">1888-</text>
    
  </g>
  <g class="person-card" data-person-id="4">
    <rect x="200.0" y="180" width="160" height="55" rx="5" class="card"/>
    <circle cx="220.0" cy="208" r="14" class="avatar-female"/>
    <text x="240.0" y="200" class="name">Blanche S. Wrathall</text>
    <text x="240.0" y="213" class="dates">1889-</text>
    
  </g>
  <g class="person-card" data-person-id="5">
    <rect x="370.0" y="180" width="160" height="55" rx="5" class="card"/>
    <circle cx="390.0" cy="208" r="14" class="avatar-male"/>
    <text x="410.0" y="200" class="name">Reginald J. Wrathall</text>
    <text x="410.0" y="213" class="dates">1892-</text>
    
  </g>  <path d="M280.0 135 L280.0 155" class="connector"/>
  <path d="M110.0 155 L450.0 155" class="connector"/>
  <path d="M110.0 155 L110.0 180" class="connector"/>
  <path d="M280.0 155 L280.0 180" class="connector"/>
  <path d="M450.0 155 L450.0 180" class="connector"/>

</svg>